# xmcd
#
# Track frame offsets:
# 150
# 13272
# 25591
# 39323
# 53699
# 71300
# 81384
# 97069
# 108892
# 121103
# 134263
# 151237
# 167901
# 181601
# 200914
# 222911
#
# Disc length: 3177 seconds
#
#
# Revision: 0
# Processed by: cddbd v1.5PL3 Copyright (c) Steve Scherf et al.
# Submitted via: FreeRIP 2.53 
#
DISCID=d00c6710
DTITLE=Haggard, Merle  - 16 Biggest Hits
DYEAR=1900
DGENRE=
TTITLE0=Swinging Doors
TTITLE1=The Bottle Let Me Down
TTITLE2=I'm A Lonesome Fugitive
TTITLE3=Branded Man
TTITLE4=Sing Me Back Home
TTITLE5=Mama Tried
TTITLE6=Hungry Eyes
TTITLE7=Workin' Man Blues
TTITLE8=Okie From Muskogee
TTITLE9=The Fighting Side Of Me
TTITLE10=Daddy Frank (The Guitar Man)
TTITLE11=I Think I'll Just Stay Here And Drink
TTITLE12=Big City
TTITLE13=Are The Good Times Really Over
TTITLE14=Going Where The Lonely Go
TTITLE15=Silver Wings
EXTD=
EXTT0=
EXTT1=
EXTT2=
EXTT3=
EXTT4=
EXTT5=
EXTT6=
EXTT7=
EXTT8=
EXTT9=
EXTT10=
EXTT11=
EXTT12=
EXTT13=
EXTT14=
EXTT15=
PLAYORDER=
